<svg xmlns="http://www.w3.org/2000/svg"
     viewBox="0 0 24 24">
  <path
    fill="currentColor"
    d="M12 0C5.37 0 0 5.37 0 12c0 5.3
    3.438 9.8 8.205 11.385.6.113.82-.258.82-.577
    0-.285-.01-1.04-.015-2.04-3.338.724-4.042-1.61
    -4.042-1.61-.546-1.387-1.333-1.757-1.333-1.757
    -1.09-.745.083-.73.083-.73 1.205.085
    1.84 1.236 1.84 1.236 1.07 1.835
    2.807 1.305 3.495.998.108-.776
    .418-1.305.762-1.605-2.665-.305
    -5.466-1.332-5.466-5.93 0-1.31
    .468-2.38 1.236-3.22-.124-.303
    -.536-1.524.117-3.176 0 0
    1.008-.322 3.3 1.23.957-.266
    1.983-.399 3.003-.404
    1.02.005 2.047.138
    3.006.404 2.29-1.552
    3.296-1.23 3.296-1.23
    .655 1.653.243 2.874
    .12 3.176.77.84
    1.235 1.91 1.235 3.22
    0 4.61-2.807 5.624
    -5.48 5.92.43.372
    .823 1.102.823 2.222
    0 1.606-.015 2.896-.015 3.286
    0 .322.216.694.825.576
    C20.565 21.796 24 17.297
    24 12c0-6.63-5.37-12-12-12z"
  />
</svg>
